<?xml version="1.0" encoding="utf-8"?>
<!-- Svg Vector Icons : http://www.onlinewebfonts.com/icon -->
<!DOCTYPE svg PUBLIC "-//W3C//DTD SVG 1.1//EN" "http://www.w3.org/Graphics/SVG/1.1/DTD/svg11.dtd">
<svg version="1.1" xmlns="http://www.w3.org/2000/svg" xmlns:xlink="http://www.w3.org/1999/xlink" x="0px" y="0px" viewBox="0 0 1000 1000" enable-background="new 0 0 1000 1000" xml:space="preserve">
<metadata> Svg Vector Icons : http://www.onlinewebfonts.com/icon </metadata>
<g><g transform="translate(0.000000,512.000000) scale(0.100000,-0.100000)"><path d="M1985.2,4988.4C1045.9,4843,275,4068.3,131.6,3123.3c-42.1-269.7-42.1-5736.9,0-6006.6C275-3834.1,1045.9-4605,1996.7-4748.4c151.1-24.9,640.8-28.7,2997.6-28.7c1865.1,0,2865.6,7.7,2965.1,21c969.9,130.1,1763.8,908.6,1909.1,1872.8c42.1,269.7,42.1,5736.9,0,6006.6C9725,4074.1,8954.1,4845,8003.3,4988.4C7752.7,5026.7,2230.1,5026.7,1985.2,4988.4z M8158.3,4602c681-193.2,1136.3-650.4,1321.9-1325.7l44-162.6V120v-2993.7l-53.6-189.4c-179.8-648.5-638.9-1107.6-1287.4-1287.4l-189.4-53.6H5000H2006.2l-162.6,44c-355.8,97.6-610.2,242.9-851.3,489.7c-237.2,239.1-394.1,522.2-482.1,864.6c-32.5,122.4-34.4,329-34.4,3125.8c0,2796.7,1.9,3003.3,34.4,3125.7c185.6,726.9,736.5,1249.2,1453.8,1379.2c111,21,728.8,24.9,3093.2,23l2955.5-3.8L8158.3,4602z"/><path d="M6643.2,2868.9c-34.4-23-84.2-72.7-107.1-107.1c-160.7-239.1,158.8-560.5,396-397.9c105.2,70.8,143.5,137.7,143.5,252.5c0,74.6-11.5,116.7-40.2,156.9C6932.1,2912.9,6767.6,2953.1,6643.2,2868.9z"/><path d="M3653.3,2679.5c-24.9-88-357.7-1216.6-738.4-2507.9c-380.7-1293.2-696.3-2362.5-702.1-2377.8c-7.7-23,34.4-26.8,275.5-26.8h286.9l237.2,813l235.3,813h757.5h759.4l246.8-813l246.8-813h294.6c269.7,0,292.7,1.9,283.1,34.4c-3.8,17.2-352,1157.3-769,2534.6l-763.3,2500.2h-300.3h-302.2L3653.3,2679.5z M4307.5,990.4c158.8-514.6,294.6-960.3,300.3-989l13.4-53.6h-616c-575.8,0-614.1,1.9-604.5,34.4c40.2,126.3,585.4,1978,585.4,1989.5C3988.1,2019.5,4051.2,1828.2,4307.5,990.4z"/><path d="M6511.2-415.6v-1817.3H6779h267.8L7043-419.5l-5.7,1811.6l-262.1,5.7l-264,5.7V-415.6z"/></g></g>
</svg>