<svg width="120" height="126" viewBox="0 0 120 126" fill="none" xmlns="http://www.w3.org/2000/svg">
<path d="M59.1853 122.458V15.591C59.1853 13.919 60.5406 12.5636 62.2127 12.5636H66.3399C66.6145 12.5636 66.8963 12.6031 67.1606 12.6778C136.695 32.3209 138.507 102.221 67.2133 125.337C66.9154 125.433 66.5943 125.485 66.2812 125.485H62.2127C60.5406 125.485 59.1853 124.13 59.1853 122.458Z" fill="#D4CC00" fill-opacity="0.95"/>
<path d="M59.1853 7.16758V3.02738C59.1853 1.3554 57.8299 0 56.1579 0H13.7106C12.0387 0 10.6833 1.35541 10.6833 3.02738V101.738C10.6833 103.41 9.32786 104.765 7.65588 104.765H3.02738C1.3554 104.765 0 106.121 0 107.793V109.894C0 111.566 1.35541 112.921 3.02738 112.921H48.5728C50.2448 112.921 51.6002 111.566 51.6002 109.894V13.2223C51.6002 11.5504 52.9555 10.195 54.6276 10.195H56.1579C57.8299 10.195 59.1853 8.83956 59.1853 7.16758Z" fill="#F8F8F8" fill-opacity="0.95"/>
</svg>
